<mxfile host="app.diagrams.net" agent="Mozilla/5.0 (Windows NT 10.0; Win64; x64) AppleWebKit/537.36 (KHTML, like Gecko) Chrome/131.0.0.0 Safari/537.36" version="25.0.3">
  <diagram name="Страница — 1" id="yuXuM_tABQGVHDGoHFVh">
    <mxGraphModel dx="2587" dy="1638" grid="1" gridSize="10" guides="1" tooltips="1" connect="1" arrows="1" fold="1" page="1" pageScale="1" pageWidth="827" pageHeight="1169" math="0" shadow="0">
      <root>
        <mxCell id="0" />
        <mxCell id="1" parent="0" />
        <mxCell id="w5Powsq784zMafRrNoOn-1" value="Idle" style="rounded=0;whiteSpace=wrap;html=1;fillColor=#f8cecc;strokeColor=#b85450;" parent="1" vertex="1">
          <mxGeometry x="340" y="10" width="120" height="60" as="geometry" />
        </mxCell>
        <mxCell id="w5Powsq784zMafRrNoOn-2" value="SearchPlaceInterest" style="rounded=0;whiteSpace=wrap;html=1;fillColor=#f8cecc;strokeColor=#b85450;" parent="1" vertex="1">
          <mxGeometry x="340" y="80" width="120" height="60" as="geometry" />
        </mxCell>
        <mxCell id="w5Powsq784zMafRrNoOn-3" value="MoverToTarget" style="rounded=0;whiteSpace=wrap;html=1;fillColor=#f8cecc;strokeColor=#b85450;" parent="1" vertex="1">
          <mxGeometry x="340" y="150" width="120" height="60" as="geometry" />
        </mxCell>
        <mxCell id="w5Powsq784zMafRrNoOn-4" value="Death" style="rounded=0;whiteSpace=wrap;html=1;fillColor=#f8cecc;strokeColor=#b85450;" parent="1" vertex="1">
          <mxGeometry x="340" y="220" width="120" height="60" as="geometry" />
        </mxCell>
        <mxCell id="w5Powsq784zMafRrNoOn-5" value="Patrol" style="rounded=0;whiteSpace=wrap;html=1;fillColor=#f8cecc;strokeColor=#b85450;" parent="1" vertex="1">
          <mxGeometry x="340" y="290" width="120" height="60" as="geometry" />
        </mxCell>
        <mxCell id="w5Powsq784zMafRrNoOn-6" value="&lt;div&gt;&lt;span style=&quot;background-color: initial;&quot;&gt;SearchPatrolPath&lt;/span&gt;&lt;/div&gt;" style="rounded=0;whiteSpace=wrap;html=1;fillColor=#f8cecc;strokeColor=#b85450;" parent="1" vertex="1">
          <mxGeometry x="340" y="360" width="120" height="60" as="geometry" />
        </mxCell>
        <mxCell id="w5Powsq784zMafRrNoOn-7" value="Death" style="ellipse;whiteSpace=wrap;html=1;fillColor=#e1d5e7;strokeColor=#9673a6;" parent="1" vertex="1">
          <mxGeometry x="480" y="10" width="120" height="80" as="geometry" />
        </mxCell>
        <mxCell id="w5Powsq784zMafRrNoOn-8" value="DistanceToMoveTarget" style="ellipse;whiteSpace=wrap;html=1;fillColor=#d5e8d4;strokeColor=#82b366;" parent="1" vertex="1">
          <mxGeometry x="480" y="100" width="120" height="80" as="geometry" />
        </mxCell>
        <mxCell id="w5Powsq784zMafRrNoOn-9" value="StateComplete" style="ellipse;whiteSpace=wrap;html=1;fillColor=#fff2cc;strokeColor=#d6b656;" parent="1" vertex="1">
          <mxGeometry x="480" y="190" width="120" height="80" as="geometry" />
        </mxCell>
        <mxCell id="w5Powsq784zMafRrNoOn-10" value="&lt;div&gt;&lt;span style=&quot;background-color: initial;&quot;&gt;Timer&lt;/span&gt;&lt;/div&gt;" style="ellipse;whiteSpace=wrap;html=1;fillColor=#dae8fc;strokeColor=#6c8ebf;" parent="1" vertex="1">
          <mxGeometry x="480" y="290" width="120" height="80" as="geometry" />
        </mxCell>
        <mxCell id="w5Powsq784zMafRrNoOn-16" style="edgeStyle=orthogonalEdgeStyle;rounded=0;orthogonalLoop=1;jettySize=auto;html=1;exitX=1;exitY=0.5;exitDx=0;exitDy=0;entryX=0;entryY=0.5;entryDx=0;entryDy=0;" parent="1" source="w5Powsq784zMafRrNoOn-11" target="w5Powsq784zMafRrNoOn-13" edge="1">
          <mxGeometry relative="1" as="geometry" />
        </mxCell>
        <mxCell id="w5Powsq784zMafRrNoOn-19" style="edgeStyle=orthogonalEdgeStyle;rounded=0;orthogonalLoop=1;jettySize=auto;html=1;" parent="1" source="w5Powsq784zMafRrNoOn-11" target="w5Powsq784zMafRrNoOn-18" edge="1">
          <mxGeometry relative="1" as="geometry" />
        </mxCell>
        <mxCell id="w5Powsq784zMafRrNoOn-11" value="Idle" style="rounded=0;whiteSpace=wrap;html=1;fillColor=#f8cecc;strokeColor=#b85450;" parent="1" vertex="1">
          <mxGeometry x="340" y="525" width="120" height="60" as="geometry" />
        </mxCell>
        <mxCell id="w5Powsq784zMafRrNoOn-26" style="edgeStyle=orthogonalEdgeStyle;rounded=0;orthogonalLoop=1;jettySize=auto;html=1;exitX=1;exitY=0.5;exitDx=0;exitDy=0;" parent="1" source="w5Powsq784zMafRrNoOn-13" target="w5Powsq784zMafRrNoOn-14" edge="1">
          <mxGeometry relative="1" as="geometry">
            <Array as="points">
              <mxPoint x="720" y="555" />
              <mxPoint x="720" y="790" />
            </Array>
          </mxGeometry>
        </mxCell>
        <mxCell id="w5Powsq784zMafRrNoOn-13" value="Death" style="ellipse;whiteSpace=wrap;html=1;fillColor=#e1d5e7;strokeColor=#9673a6;" parent="1" vertex="1">
          <mxGeometry x="560" y="515" width="120" height="80" as="geometry" />
        </mxCell>
        <mxCell id="w5Powsq784zMafRrNoOn-14" value="Death" style="rounded=0;whiteSpace=wrap;html=1;fillColor=#f8cecc;strokeColor=#b85450;" parent="1" vertex="1">
          <mxGeometry x="757" y="760" width="120" height="60" as="geometry" />
        </mxCell>
        <mxCell id="w5Powsq784zMafRrNoOn-27" style="edgeStyle=orthogonalEdgeStyle;rounded=0;orthogonalLoop=1;jettySize=auto;html=1;" parent="1" source="w5Powsq784zMafRrNoOn-18" target="w5Powsq784zMafRrNoOn-20" edge="1">
          <mxGeometry relative="1" as="geometry" />
        </mxCell>
        <mxCell id="w5Powsq784zMafRrNoOn-18" value="StateComplete" style="ellipse;whiteSpace=wrap;html=1;fillColor=#fff2cc;strokeColor=#d6b656;" parent="1" vertex="1">
          <mxGeometry x="340" y="630" width="120" height="80" as="geometry" />
        </mxCell>
        <mxCell id="w5Powsq784zMafRrNoOn-24" style="edgeStyle=orthogonalEdgeStyle;rounded=0;orthogonalLoop=1;jettySize=auto;html=1;" parent="1" source="w5Powsq784zMafRrNoOn-20" target="w5Powsq784zMafRrNoOn-22" edge="1">
          <mxGeometry relative="1" as="geometry" />
        </mxCell>
        <mxCell id="w5Powsq784zMafRrNoOn-29" style="edgeStyle=orthogonalEdgeStyle;rounded=0;orthogonalLoop=1;jettySize=auto;html=1;" parent="1" source="w5Powsq784zMafRrNoOn-20" target="w5Powsq784zMafRrNoOn-28" edge="1">
          <mxGeometry relative="1" as="geometry" />
        </mxCell>
        <mxCell id="w5Powsq784zMafRrNoOn-38" style="edgeStyle=orthogonalEdgeStyle;rounded=0;orthogonalLoop=1;jettySize=auto;html=1;entryX=0.5;entryY=0;entryDx=0;entryDy=0;" parent="1" target="w5Powsq784zMafRrNoOn-37" edge="1">
          <mxGeometry relative="1" as="geometry">
            <mxPoint x="350" y="789.9999999999998" as="sourcePoint" />
          </mxGeometry>
        </mxCell>
        <mxCell id="w5Powsq784zMafRrNoOn-20" value="SearchPlaceInterest" style="rounded=0;whiteSpace=wrap;html=1;fillColor=#f8cecc;strokeColor=#b85450;" parent="1" vertex="1">
          <mxGeometry x="340" y="760" width="120" height="60" as="geometry" />
        </mxCell>
        <mxCell id="w5Powsq784zMafRrNoOn-25" style="edgeStyle=orthogonalEdgeStyle;rounded=0;orthogonalLoop=1;jettySize=auto;html=1;" parent="1" source="w5Powsq784zMafRrNoOn-22" target="w5Powsq784zMafRrNoOn-14" edge="1">
          <mxGeometry relative="1" as="geometry" />
        </mxCell>
        <mxCell id="w5Powsq784zMafRrNoOn-22" value="Death" style="ellipse;whiteSpace=wrap;html=1;fillColor=#e1d5e7;strokeColor=#9673a6;" parent="1" vertex="1">
          <mxGeometry x="560" y="750" width="120" height="80" as="geometry" />
        </mxCell>
        <mxCell id="w5Powsq784zMafRrNoOn-31" style="edgeStyle=orthogonalEdgeStyle;rounded=0;orthogonalLoop=1;jettySize=auto;html=1;" parent="1" source="w5Powsq784zMafRrNoOn-28" target="w5Powsq784zMafRrNoOn-30" edge="1">
          <mxGeometry relative="1" as="geometry" />
        </mxCell>
        <mxCell id="w5Powsq784zMafRrNoOn-28" value="StateComplete" style="ellipse;whiteSpace=wrap;html=1;fillColor=#fff2cc;strokeColor=#d6b656;" parent="1" vertex="1">
          <mxGeometry x="340" y="870" width="120" height="80" as="geometry" />
        </mxCell>
        <mxCell id="w5Powsq784zMafRrNoOn-34" style="edgeStyle=orthogonalEdgeStyle;rounded=0;orthogonalLoop=1;jettySize=auto;html=1;" parent="1" source="w5Powsq784zMafRrNoOn-30" target="w5Powsq784zMafRrNoOn-33" edge="1">
          <mxGeometry relative="1" as="geometry" />
        </mxCell>
        <mxCell id="w5Powsq784zMafRrNoOn-67" style="edgeStyle=orthogonalEdgeStyle;rounded=0;orthogonalLoop=1;jettySize=auto;html=1;" parent="1" source="w5Powsq784zMafRrNoOn-30" target="w5Powsq784zMafRrNoOn-66" edge="1">
          <mxGeometry relative="1" as="geometry" />
        </mxCell>
        <mxCell id="w5Powsq784zMafRrNoOn-30" value="MoverToTarget" style="rounded=0;whiteSpace=wrap;html=1;fillColor=#f8cecc;strokeColor=#b85450;" parent="1" vertex="1">
          <mxGeometry x="340" y="1000" width="120" height="60" as="geometry" />
        </mxCell>
        <mxCell id="w5Powsq784zMafRrNoOn-56" style="edgeStyle=orthogonalEdgeStyle;rounded=0;orthogonalLoop=1;jettySize=auto;html=1;entryX=0;entryY=0.5;entryDx=0;entryDy=0;" parent="1" source="w5Powsq784zMafRrNoOn-33" target="w5Powsq784zMafRrNoOn-14" edge="1">
          <mxGeometry relative="1" as="geometry">
            <mxPoint x="670" y="790" as="targetPoint" />
            <Array as="points">
              <mxPoint x="720" y="1030" />
              <mxPoint x="720" y="790" />
            </Array>
          </mxGeometry>
        </mxCell>
        <mxCell id="w5Powsq784zMafRrNoOn-33" value="Death" style="ellipse;whiteSpace=wrap;html=1;fillColor=#e1d5e7;strokeColor=#9673a6;" parent="1" vertex="1">
          <mxGeometry x="560" y="990" width="120" height="80" as="geometry" />
        </mxCell>
        <mxCell id="w5Powsq784zMafRrNoOn-40" style="edgeStyle=orthogonalEdgeStyle;rounded=0;orthogonalLoop=1;jettySize=auto;html=1;entryX=0;entryY=0.5;entryDx=0;entryDy=0;" parent="1" source="w5Powsq784zMafRrNoOn-36" target="w5Powsq784zMafRrNoOn-41" edge="1">
          <mxGeometry relative="1" as="geometry">
            <mxPoint x="520" y="960" as="targetPoint" />
            <Array as="points">
              <mxPoint x="310" y="1030" />
              <mxPoint x="310" y="970" />
              <mxPoint x="480" y="970" />
              <mxPoint x="480" y="910" />
            </Array>
          </mxGeometry>
        </mxCell>
        <mxCell id="w5Powsq784zMafRrNoOn-45" style="edgeStyle=orthogonalEdgeStyle;rounded=0;orthogonalLoop=1;jettySize=auto;html=1;" parent="1" source="w5Powsq784zMafRrNoOn-36" target="w5Powsq784zMafRrNoOn-44" edge="1">
          <mxGeometry relative="1" as="geometry" />
        </mxCell>
        <mxCell id="w5Powsq784zMafRrNoOn-47" style="edgeStyle=orthogonalEdgeStyle;rounded=0;orthogonalLoop=1;jettySize=auto;html=1;" parent="1" source="w5Powsq784zMafRrNoOn-36" target="w5Powsq784zMafRrNoOn-46" edge="1">
          <mxGeometry relative="1" as="geometry" />
        </mxCell>
        <mxCell id="w5Powsq784zMafRrNoOn-36" value="SearchPatrolPath" style="rounded=0;whiteSpace=wrap;html=1;fillColor=#f8cecc;strokeColor=#b85450;" parent="1" vertex="1">
          <mxGeometry x="100" y="1000" width="120" height="60" as="geometry" />
        </mxCell>
        <mxCell id="w5Powsq784zMafRrNoOn-39" style="edgeStyle=orthogonalEdgeStyle;rounded=0;orthogonalLoop=1;jettySize=auto;html=1;" parent="1" source="w5Powsq784zMafRrNoOn-37" target="w5Powsq784zMafRrNoOn-36" edge="1">
          <mxGeometry relative="1" as="geometry" />
        </mxCell>
        <mxCell id="w5Powsq784zMafRrNoOn-37" value="&lt;div&gt;&lt;span style=&quot;background-color: initial;&quot;&gt;Timer&lt;/span&gt;&lt;/div&gt;" style="ellipse;whiteSpace=wrap;html=1;fillColor=#dae8fc;strokeColor=#6c8ebf;" parent="1" vertex="1">
          <mxGeometry x="100" y="870" width="120" height="80" as="geometry" />
        </mxCell>
        <mxCell id="w5Powsq784zMafRrNoOn-43" style="edgeStyle=orthogonalEdgeStyle;rounded=0;orthogonalLoop=1;jettySize=auto;html=1;" parent="1" source="w5Powsq784zMafRrNoOn-41" target="w5Powsq784zMafRrNoOn-14" edge="1">
          <mxGeometry relative="1" as="geometry">
            <Array as="points">
              <mxPoint x="720" y="910" />
              <mxPoint x="720" y="790" />
            </Array>
          </mxGeometry>
        </mxCell>
        <mxCell id="w5Powsq784zMafRrNoOn-41" value="Death" style="ellipse;whiteSpace=wrap;html=1;fillColor=#e1d5e7;strokeColor=#9673a6;" parent="1" vertex="1">
          <mxGeometry x="560" y="870" width="120" height="80" as="geometry" />
        </mxCell>
        <mxCell id="w5Powsq784zMafRrNoOn-51" style="edgeStyle=orthogonalEdgeStyle;rounded=0;orthogonalLoop=1;jettySize=auto;html=1;" parent="1" source="w5Powsq784zMafRrNoOn-44" target="w5Powsq784zMafRrNoOn-70" edge="1">
          <mxGeometry relative="1" as="geometry" />
        </mxCell>
        <mxCell id="w5Powsq784zMafRrNoOn-44" value="StateComplete" style="ellipse;whiteSpace=wrap;html=1;fillColor=#fff2cc;strokeColor=#d6b656;" parent="1" vertex="1">
          <mxGeometry x="100" y="1110" width="120" height="80" as="geometry" />
        </mxCell>
        <mxCell id="w5Powsq784zMafRrNoOn-49" style="edgeStyle=orthogonalEdgeStyle;rounded=0;orthogonalLoop=1;jettySize=auto;html=1;entryX=0.5;entryY=0;entryDx=0;entryDy=0;" parent="1" source="w5Powsq784zMafRrNoOn-46" target="w5Powsq784zMafRrNoOn-20" edge="1">
          <mxGeometry relative="1" as="geometry">
            <mxPoint x="400" y="720" as="targetPoint" />
            <Array as="points">
              <mxPoint y="730" />
              <mxPoint x="401" y="730" />
              <mxPoint x="401" y="760" />
            </Array>
          </mxGeometry>
        </mxCell>
        <mxCell id="w5Powsq784zMafRrNoOn-46" value="&lt;div&gt;&lt;span style=&quot;background-color: initial;&quot;&gt;Timer&lt;/span&gt;&lt;/div&gt;" style="ellipse;whiteSpace=wrap;html=1;fillColor=#dae8fc;strokeColor=#6c8ebf;" parent="1" vertex="1">
          <mxGeometry x="-60" y="870" width="120" height="80" as="geometry" />
        </mxCell>
        <mxCell id="w5Powsq784zMafRrNoOn-58" style="edgeStyle=orthogonalEdgeStyle;rounded=0;orthogonalLoop=1;jettySize=auto;html=1;" parent="1" source="w5Powsq784zMafRrNoOn-50" target="w5Powsq784zMafRrNoOn-57" edge="1">
          <mxGeometry relative="1" as="geometry" />
        </mxCell>
        <mxCell id="w5Powsq784zMafRrNoOn-61" style="edgeStyle=orthogonalEdgeStyle;rounded=0;orthogonalLoop=1;jettySize=auto;html=1;" parent="1" source="w5Powsq784zMafRrNoOn-50" target="w5Powsq784zMafRrNoOn-60" edge="1">
          <mxGeometry relative="1" as="geometry" />
        </mxCell>
        <mxCell id="w5Powsq784zMafRrNoOn-50" value="Patrol" style="rounded=0;whiteSpace=wrap;html=1;fillColor=#f8cecc;strokeColor=#b85450;" parent="1" vertex="1">
          <mxGeometry x="100" y="1500" width="120" height="60" as="geometry" />
        </mxCell>
        <mxCell id="w5Powsq784zMafRrNoOn-59" style="edgeStyle=orthogonalEdgeStyle;rounded=0;orthogonalLoop=1;jettySize=auto;html=1;entryX=0;entryY=0.5;entryDx=0;entryDy=0;" parent="1" source="w5Powsq784zMafRrNoOn-57" target="w5Powsq784zMafRrNoOn-14" edge="1">
          <mxGeometry relative="1" as="geometry">
            <Array as="points">
              <mxPoint x="720" y="1530" />
              <mxPoint x="720" y="790" />
            </Array>
          </mxGeometry>
        </mxCell>
        <mxCell id="w5Powsq784zMafRrNoOn-57" value="Death" style="ellipse;whiteSpace=wrap;html=1;fillColor=#e1d5e7;strokeColor=#9673a6;" parent="1" vertex="1">
          <mxGeometry x="560" y="1490" width="120" height="80" as="geometry" />
        </mxCell>
        <mxCell id="w5Powsq784zMafRrNoOn-62" style="edgeStyle=orthogonalEdgeStyle;rounded=0;orthogonalLoop=1;jettySize=auto;html=1;" parent="1" source="w5Powsq784zMafRrNoOn-60" target="w5Powsq784zMafRrNoOn-20" edge="1">
          <mxGeometry relative="1" as="geometry">
            <mxPoint x="400" y="730" as="targetPoint" />
            <Array as="points">
              <mxPoint x="-90" y="1530" />
              <mxPoint x="-90" y="730" />
              <mxPoint x="400" y="730" />
            </Array>
          </mxGeometry>
        </mxCell>
        <mxCell id="w5Powsq784zMafRrNoOn-60" value="&lt;div&gt;&lt;span style=&quot;background-color: initial;&quot;&gt;Timer&lt;/span&gt;&lt;/div&gt;" style="ellipse;whiteSpace=wrap;html=1;fillColor=#dae8fc;strokeColor=#6c8ebf;" parent="1" vertex="1">
          <mxGeometry x="-60" y="1490" width="120" height="80" as="geometry" />
        </mxCell>
        <mxCell id="w5Powsq784zMafRrNoOn-66" value="DistanceToMoveTarget" style="ellipse;whiteSpace=wrap;html=1;fillColor=#d5e8d4;strokeColor=#82b366;" parent="1" vertex="1">
          <mxGeometry x="340" y="1110" width="120" height="80" as="geometry" />
        </mxCell>
        <mxCell id="w5Powsq784zMafRrNoOn-72" style="edgeStyle=orthogonalEdgeStyle;rounded=0;orthogonalLoop=1;jettySize=auto;html=1;" parent="1" source="w5Powsq784zMafRrNoOn-70" target="w5Powsq784zMafRrNoOn-71" edge="1">
          <mxGeometry relative="1" as="geometry" />
        </mxCell>
        <mxCell id="w5Powsq784zMafRrNoOn-75" style="edgeStyle=orthogonalEdgeStyle;rounded=0;orthogonalLoop=1;jettySize=auto;html=1;exitX=1;exitY=0.5;exitDx=0;exitDy=0;" parent="1" source="w5Powsq784zMafRrNoOn-70" target="w5Powsq784zMafRrNoOn-74" edge="1">
          <mxGeometry relative="1" as="geometry">
            <Array as="points">
              <mxPoint x="310" y="1270" />
              <mxPoint x="310" y="1210" />
              <mxPoint x="480" y="1210" />
              <mxPoint x="480" y="1150" />
            </Array>
          </mxGeometry>
        </mxCell>
        <mxCell id="w5Powsq784zMafRrNoOn-70" value="MoverToTarget(2)" style="rounded=0;whiteSpace=wrap;html=1;fillColor=#f8cecc;strokeColor=#b85450;" parent="1" vertex="1">
          <mxGeometry x="100" y="1240" width="120" height="60" as="geometry" />
        </mxCell>
        <mxCell id="w5Powsq784zMafRrNoOn-73" style="edgeStyle=orthogonalEdgeStyle;rounded=0;orthogonalLoop=1;jettySize=auto;html=1;" parent="1" source="w5Powsq784zMafRrNoOn-71" target="w5Powsq784zMafRrNoOn-50" edge="1">
          <mxGeometry relative="1" as="geometry" />
        </mxCell>
        <mxCell id="w5Powsq784zMafRrNoOn-71" value="DistanceToMoveTarget" style="ellipse;whiteSpace=wrap;html=1;fillColor=#d5e8d4;strokeColor=#82b366;" parent="1" vertex="1">
          <mxGeometry x="100" y="1360" width="120" height="80" as="geometry" />
        </mxCell>
        <mxCell id="hgjh81tVx78VPjvdYGjp-14" style="edgeStyle=orthogonalEdgeStyle;rounded=0;orthogonalLoop=1;jettySize=auto;html=1;" edge="1" parent="1" source="w5Powsq784zMafRrNoOn-74" target="w5Powsq784zMafRrNoOn-14">
          <mxGeometry relative="1" as="geometry">
            <Array as="points">
              <mxPoint x="720" y="1150" />
              <mxPoint x="720" y="790" />
            </Array>
          </mxGeometry>
        </mxCell>
        <mxCell id="w5Powsq784zMafRrNoOn-74" value="Death" style="ellipse;whiteSpace=wrap;html=1;fillColor=#e1d5e7;strokeColor=#9673a6;" parent="1" vertex="1">
          <mxGeometry x="560" y="1110" width="120" height="80" as="geometry" />
        </mxCell>
        <mxCell id="hj9RDt5dbeIVLX2mZW8o-1" value="Interaction" style="rounded=0;whiteSpace=wrap;html=1;fillColor=#f8cecc;strokeColor=#b85450;" parent="1" vertex="1">
          <mxGeometry x="190" y="10" width="120" height="60" as="geometry" />
        </mxCell>
        <mxCell id="hj9RDt5dbeIVLX2mZW8o-3" value="" style="edgeStyle=orthogonalEdgeStyle;rounded=0;orthogonalLoop=1;jettySize=auto;html=1;" parent="1" source="w5Powsq784zMafRrNoOn-66" target="hj9RDt5dbeIVLX2mZW8o-2" edge="1">
          <mxGeometry relative="1" as="geometry">
            <mxPoint x="400" y="1630" as="targetPoint" />
            <mxPoint x="400" y="1190" as="sourcePoint" />
          </mxGeometry>
        </mxCell>
        <mxCell id="hj9RDt5dbeIVLX2mZW8o-5" style="edgeStyle=orthogonalEdgeStyle;rounded=0;orthogonalLoop=1;jettySize=auto;html=1;" parent="1" source="hj9RDt5dbeIVLX2mZW8o-2" target="hj9RDt5dbeIVLX2mZW8o-4" edge="1">
          <mxGeometry relative="1" as="geometry" />
        </mxCell>
        <mxCell id="hj9RDt5dbeIVLX2mZW8o-10" style="edgeStyle=orthogonalEdgeStyle;rounded=0;orthogonalLoop=1;jettySize=auto;html=1;" parent="1" source="hj9RDt5dbeIVLX2mZW8o-2" target="hj9RDt5dbeIVLX2mZW8o-9" edge="1">
          <mxGeometry relative="1" as="geometry" />
        </mxCell>
        <mxCell id="hj9RDt5dbeIVLX2mZW8o-2" value="Interaction" style="rounded=0;whiteSpace=wrap;html=1;fillColor=#f8cecc;strokeColor=#b85450;" parent="1" vertex="1">
          <mxGeometry x="340" y="1240" width="120" height="60" as="geometry" />
        </mxCell>
        <mxCell id="hj9RDt5dbeIVLX2mZW8o-6" style="edgeStyle=orthogonalEdgeStyle;rounded=0;orthogonalLoop=1;jettySize=auto;html=1;entryX=0;entryY=0.5;entryDx=0;entryDy=0;" parent="1" source="hj9RDt5dbeIVLX2mZW8o-4" target="w5Powsq784zMafRrNoOn-14" edge="1">
          <mxGeometry relative="1" as="geometry" />
        </mxCell>
        <mxCell id="hj9RDt5dbeIVLX2mZW8o-4" value="Death" style="ellipse;whiteSpace=wrap;html=1;fillColor=#e1d5e7;strokeColor=#9673a6;" parent="1" vertex="1">
          <mxGeometry x="560" y="1230" width="120" height="80" as="geometry" />
        </mxCell>
        <mxCell id="hj9RDt5dbeIVLX2mZW8o-9" value="StateComplete" style="ellipse;whiteSpace=wrap;html=1;fillColor=#fff2cc;strokeColor=#d6b656;" parent="1" vertex="1">
          <mxGeometry x="340" y="1360" width="120" height="80" as="geometry" />
        </mxCell>
        <mxCell id="hgjh81tVx78VPjvdYGjp-1" style="edgeStyle=orthogonalEdgeStyle;rounded=0;orthogonalLoop=1;jettySize=auto;html=1;entryX=0.5;entryY=0;entryDx=0;entryDy=0;" edge="1" parent="1" target="w5Powsq784zMafRrNoOn-36">
          <mxGeometry relative="1" as="geometry">
            <mxPoint x="340" y="1400" as="sourcePoint" />
            <mxPoint x="160" y="980" as="targetPoint" />
            <Array as="points">
              <mxPoint x="270" y="1400" />
              <mxPoint x="270" y="970" />
              <mxPoint x="160" y="970" />
            </Array>
          </mxGeometry>
        </mxCell>
      </root>
    </mxGraphModel>
  </diagram>
</mxfile>
